<svg width="29" height="28" viewBox="0 0 29 28" fill="none" xmlns="http://www.w3.org/2000/svg">
<path d="M28.9472 0.2956C28.9487 3.51793 28.9516 6.74026 28.9531 9.96258C28.9531 10.3504 28.9531 10.7382 28.9531 11.1274C28.9531 11.3177 28.9531 11.5064 28.9516 11.6967C28.9516 11.7508 28.9516 11.805 28.9516 11.8591C28.9413 15.7912 28.9294 19.7232 28.9235 23.6553C28.922 24.6987 28.9368 25.742 28.9457 26.7854C28.9324 26.9318 28.9191 27.0766 28.9057 27.223C27.6264 25.8108 26.3336 24.4104 25.0705 22.9836C19.8582 17.0936 14.6533 11.1991 9.4587 5.29445C9.14922 4.94178 8.83086 4.83057 8.37922 4.83496C6.18323 4.85398 3.98724 4.8452 1.79124 4.8452C1.5247 4.8452 1.25965 4.8452 0.953125 4.8452C0.953125 3.23404 0.953125 1.68433 0.953125 0.0336574C1.2019 0.0336574 1.43734 0.0336574 1.67426 0.0336574C4.65951 0.0336574 7.64475 0.0439009 10.63 0.0204871C11.0964 0.0175604 11.3985 0.159507 11.6991 0.503397C12.4188 1.32288 13.1843 2.10139 13.9306 2.896L13.9292 2.88429C14.6044 3.68621 15.2811 4.48814 15.9564 5.29006C16.1414 5.50079 16.3251 5.71151 16.5102 5.9237L16.5324 5.9515C17.1632 6.66416 17.7925 7.37828 18.4233 8.09094C18.5862 8.27386 18.7476 8.45532 18.9105 8.63824C19.3784 9.16944 19.8464 9.70064 20.3143 10.2318L20.3217 10.2406C20.3661 10.2904 20.412 10.3401 20.4564 10.3899C20.6371 10.5933 20.8177 10.7952 20.9969 10.9986C21.2205 11.2533 21.4456 11.5079 21.6692 11.7625C21.9076 12.0332 22.1475 12.3025 22.3859 12.5732L22.3948 12.5835C22.4392 12.6332 22.4836 12.683 22.528 12.7313L22.5295 12.7327C22.6228 12.8425 22.7176 12.9522 22.8109 13.062C22.8479 13.1044 22.8864 13.1483 22.9234 13.1908C23.264 13.5917 23.6046 13.9927 24.0207 14.4829C24.0207 13.7337 24.0207 13.16 24.0207 12.5864C24.0221 10.0489 24.0221 7.51145 24.0236 4.97398C23.92 4.93885 23.8178 4.90227 23.7141 4.86715C22.5295 4.86861 21.3434 4.87008 20.1588 4.87154C20.1084 4.86861 20.0596 4.86422 20.0092 4.8613C19.7723 4.63008 19.5354 4.40034 19.2999 4.16912C19.0986 3.9423 18.8957 3.71402 18.6943 3.4872C18.1523 2.90917 17.6104 2.32968 17.0684 1.75165C16.7634 1.36971 16.4583 0.987771 16.1533 0.605833L16.1429 0.592663C16.0393 0.425839 15.9356 0.257552 15.7757 0C16.4761 0 17.0595 0 17.643 0C21.1509 0.0117069 24.6589 0.0204871 28.1683 0.0395108C28.426 0.0409742 28.6836 0.111216 28.9413 0.149263C28.9428 0.197554 28.9457 0.247309 28.9472 0.2956Z" fill="#FFB400"/>
<path d="M24.9328 27.9648C21.2205 27.9765 17.5097 27.9882 13.7974 27.9999C13.251 27.9984 12.7046 27.9985 12.1582 27.997C8.70499 27.9882 5.25182 27.9794 1.79717 27.9706C1.53063 27.9706 1.26409 27.9706 0.953125 27.9706C0.953125 21.2889 0.953125 14.6687 0.953125 7.9606C2.311 7.9606 3.67331 8.08352 5.00453 7.92987C6.72815 7.73085 7.83874 8.36156 8.92859 9.66981C11.7347 13.0355 14.7081 16.2652 17.6133 19.5504C17.7229 19.6734 17.8192 19.8095 18.0102 20.0524C16.4761 20.0524 15.0516 19.9456 13.6508 20.0816C12.1508 20.2265 11.1423 19.7509 10.2228 18.5612C8.89601 16.8461 7.36785 15.2818 5.83673 13.5536C5.83673 16.8096 5.83673 19.9309 5.83673 23.1211C9.62159 23.1211 13.4094 23.1211 17.1972 23.1211C18.333 23.1225 19.4688 23.1225 20.603 23.124C20.8222 23.3084 21.065 23.4723 21.2546 23.6815C22.4866 25.0498 23.7067 26.4283 24.9313 27.8038C24.9328 27.8565 24.9328 27.9106 24.9328 27.9648Z" fill="#FFB400"/>
</svg>
