<svg width="269" height="311" viewBox="0 0 269 311" fill="none" xmlns="http://www.w3.org/2000/svg">
<path d="M182.373 8.20418C169.5 8.5809 156.5 10.6884 143.655 14.6588C64.3191 39.1802 20.6012 125.712 46.012 207.925C58.3677 247.9 84.7931 279.486 117.8 298.582" stroke="#FE461C" stroke-width="2" stroke-miterlimit="10" stroke-linecap="round" stroke-linejoin="round"/>
<path d="M192.691 23.3754C180.77 23.7351 168.719 25.6804 156.811 29.361C83.2951 52.0838 42.7817 132.273 66.3286 208.456C77.7791 245.502 102.264 274.772 132.855 292.471" stroke="#FE461C" stroke-miterlimit="10" stroke-linecap="round" stroke-linejoin="round"/>
<path d="M203.186 39.1629C192.31 39.491 181.32 41.2692 170.452 44.6282C103.372 65.3618 66.4119 138.517 87.8975 208.031C98.3441 241.829 120.686 268.538 148.59 284.691" stroke="#FE461C" stroke-width="0.75" stroke-miterlimit="10" stroke-linecap="round" stroke-linejoin="round"/>
<path d="M208.843 57.4664C199.193 57.7513 189.451 59.3333 179.816 62.3111C120.327 80.6982 87.55 145.575 106.604 207.222C115.866 237.186 135.674 260.887 160.432 275.197" stroke="#FE461C" stroke-width="0.5" stroke-miterlimit="10" stroke-linecap="round" stroke-linejoin="round"/>
<path d="M214.118 74.5322C205.568 74.7829 196.938 76.1818 188.395 78.8221C135.676 95.1167 106.627 152.614 123.513 207.245C131.721 233.802 149.273 254.802 171.209 267.491" stroke="#FE461C" stroke-width="0.25" stroke-miterlimit="10" stroke-linecap="round" stroke-linejoin="round"/>
</svg>
