<svg width="32" height="28" viewBox="0 0 32 28" fill="none" xmlns="http://www.w3.org/2000/svg">
<path d="M3 28H11C12.6875 28 14 26.625 14 25V17C14 15.3125 12.6875 14 11 14H6V10C6 7.75 7.8125 6 10 6H10.5C11.375 6 12 5.3125 12 4.5V1.5C12 0.625 11.375 0 10.5 0H10C4.5 0 0 4.4375 0 10L0 25C0 26.625 1.375 28 3 28ZM21 28H29C30.6875 28 32 26.625 32 25V17C32 15.3125 30.6875 14 29 14H24L24 10C24 7.75 25.8125 6 28 6H28.5C29.375 6 30 5.3125 30 4.5V1.5C30 0.625 29.375 0 28.5 0H28C22.5 0 18 4.4375 18 10V25C18 26.625 19.375 28 21 28Z" fill="#FFB400"/>
</svg>
